<mxfile host="www.draw.io" modified="2020-02-02T19:35:04.343Z" agent="Mozilla/5.0 (X11; Linux x86_64) AppleWebKit/537.36 (KHTML, like Gecko) Chrome/78.0.3904.108 Safari/537.36" etag="hnKkFqebaBI-Kn77wguT" version="12.6.4" type="github">
  <diagram id="HrM-nxRuu2O6wdgJGOM7" name="Page-1">
    <mxGraphModel dx="1352" dy="757" grid="1" gridSize="10" guides="1" tooltips="1" connect="1" arrows="1" fold="1" page="1" pageScale="1" pageWidth="850" pageHeight="1100" math="0" shadow="0">
      <root>
        <mxCell id="0"/>
        <mxCell id="1" parent="0"/>
        <mxCell id="QFDXtt2NurlHFwD-7sQe-1" value="8" style="whiteSpace=wrap;html=1;aspect=fixed;" parent="1" vertex="1">
          <mxGeometry x="140" y="180" width="30" height="30" as="geometry"/>
        </mxCell>
        <mxCell id="QFDXtt2NurlHFwD-7sQe-2" value="3" style="whiteSpace=wrap;html=1;aspect=fixed;" parent="1" vertex="1">
          <mxGeometry x="170" y="180" width="30" height="30" as="geometry"/>
        </mxCell>
        <mxCell id="QFDXtt2NurlHFwD-7sQe-3" value="4" style="whiteSpace=wrap;html=1;aspect=fixed;" parent="1" vertex="1">
          <mxGeometry x="200" y="180" width="30" height="30" as="geometry"/>
        </mxCell>
        <mxCell id="QFDXtt2NurlHFwD-7sQe-4" value="9" style="whiteSpace=wrap;html=1;aspect=fixed;" parent="1" vertex="1">
          <mxGeometry x="230" y="180" width="30" height="30" as="geometry"/>
        </mxCell>
        <mxCell id="QFDXtt2NurlHFwD-7sQe-5" value="1" style="whiteSpace=wrap;html=1;aspect=fixed;" parent="1" vertex="1">
          <mxGeometry x="260" y="180" width="30" height="30" as="geometry"/>
        </mxCell>
        <mxCell id="QFDXtt2NurlHFwD-7sQe-7" value="With 2 rotation" style="text;html=1;strokeColor=none;fillColor=none;align=left;verticalAlign=middle;whiteSpace=wrap;rounded=0;" parent="1" vertex="1">
          <mxGeometry x="140" y="150" width="180" height="20" as="geometry"/>
        </mxCell>
        <mxCell id="QFDXtt2NurlHFwD-7sQe-8" value="" style="endArrow=classic;html=1;entryX=0;entryY=0.5;entryDx=0;entryDy=0;" parent="1" source="QFDXtt2NurlHFwD-7sQe-5" target="QFDXtt2NurlHFwD-7sQe-9" edge="1">
          <mxGeometry width="50" height="50" relative="1" as="geometry">
            <mxPoint x="300" y="195" as="sourcePoint"/>
            <mxPoint x="190" y="230" as="targetPoint"/>
          </mxGeometry>
        </mxCell>
        <mxCell id="QFDXtt2NurlHFwD-7sQe-9" value="4" style="whiteSpace=wrap;html=1;aspect=fixed;" parent="1" vertex="1">
          <mxGeometry x="390" y="180" width="30" height="30" as="geometry"/>
        </mxCell>
        <mxCell id="QFDXtt2NurlHFwD-7sQe-10" value="9" style="whiteSpace=wrap;html=1;aspect=fixed;" parent="1" vertex="1">
          <mxGeometry x="420" y="180" width="30" height="30" as="geometry"/>
        </mxCell>
        <mxCell id="QFDXtt2NurlHFwD-7sQe-11" value="1" style="whiteSpace=wrap;html=1;aspect=fixed;" parent="1" vertex="1">
          <mxGeometry x="450" y="180" width="30" height="30" as="geometry"/>
        </mxCell>
        <mxCell id="QFDXtt2NurlHFwD-7sQe-12" value="8" style="whiteSpace=wrap;html=1;aspect=fixed;" parent="1" vertex="1">
          <mxGeometry x="480" y="180" width="30" height="30" as="geometry"/>
        </mxCell>
        <mxCell id="QFDXtt2NurlHFwD-7sQe-13" value="3" style="whiteSpace=wrap;html=1;aspect=fixed;" parent="1" vertex="1">
          <mxGeometry x="510" y="180" width="30" height="30" as="geometry"/>
        </mxCell>
        <mxCell id="QFDXtt2NurlHFwD-7sQe-14" value="8" style="whiteSpace=wrap;html=1;aspect=fixed;" parent="1" vertex="1">
          <mxGeometry x="140" y="310" width="30" height="30" as="geometry"/>
        </mxCell>
        <mxCell id="QFDXtt2NurlHFwD-7sQe-15" value="3" style="whiteSpace=wrap;html=1;aspect=fixed;" parent="1" vertex="1">
          <mxGeometry x="170" y="310" width="30" height="30" as="geometry"/>
        </mxCell>
        <mxCell id="QFDXtt2NurlHFwD-7sQe-16" value="4" style="whiteSpace=wrap;html=1;aspect=fixed;" parent="1" vertex="1">
          <mxGeometry x="200" y="310" width="30" height="30" as="geometry"/>
        </mxCell>
        <mxCell id="QFDXtt2NurlHFwD-7sQe-17" value="9" style="whiteSpace=wrap;html=1;aspect=fixed;" parent="1" vertex="1">
          <mxGeometry x="230" y="310" width="30" height="30" as="geometry"/>
        </mxCell>
        <mxCell id="QFDXtt2NurlHFwD-7sQe-18" value="1" style="whiteSpace=wrap;html=1;aspect=fixed;" parent="1" vertex="1">
          <mxGeometry x="260" y="310" width="30" height="30" as="geometry"/>
        </mxCell>
        <mxCell id="QFDXtt2NurlHFwD-7sQe-19" value="With 3 rotation" style="text;html=1;strokeColor=none;fillColor=none;align=left;verticalAlign=middle;whiteSpace=wrap;rounded=0;" parent="1" vertex="1">
          <mxGeometry x="140" y="280" width="180" height="20" as="geometry"/>
        </mxCell>
        <mxCell id="QFDXtt2NurlHFwD-7sQe-20" value="" style="endArrow=classic;html=1;entryX=0;entryY=0.5;entryDx=0;entryDy=0;" parent="1" source="QFDXtt2NurlHFwD-7sQe-18" target="QFDXtt2NurlHFwD-7sQe-21" edge="1">
          <mxGeometry width="50" height="50" relative="1" as="geometry">
            <mxPoint x="300" y="325" as="sourcePoint"/>
            <mxPoint x="190" y="360" as="targetPoint"/>
          </mxGeometry>
        </mxCell>
        <mxCell id="QFDXtt2NurlHFwD-7sQe-21" value="9" style="whiteSpace=wrap;html=1;aspect=fixed;" parent="1" vertex="1">
          <mxGeometry x="390" y="310" width="30" height="30" as="geometry"/>
        </mxCell>
        <mxCell id="QFDXtt2NurlHFwD-7sQe-22" value="1" style="whiteSpace=wrap;html=1;aspect=fixed;" parent="1" vertex="1">
          <mxGeometry x="420" y="310" width="30" height="30" as="geometry"/>
        </mxCell>
        <mxCell id="QFDXtt2NurlHFwD-7sQe-23" value="8" style="whiteSpace=wrap;html=1;aspect=fixed;" parent="1" vertex="1">
          <mxGeometry x="450" y="310" width="30" height="30" as="geometry"/>
        </mxCell>
        <mxCell id="QFDXtt2NurlHFwD-7sQe-24" value="3" style="whiteSpace=wrap;html=1;aspect=fixed;" parent="1" vertex="1">
          <mxGeometry x="480" y="310" width="30" height="30" as="geometry"/>
        </mxCell>
        <mxCell id="QFDXtt2NurlHFwD-7sQe-25" value="4" style="whiteSpace=wrap;html=1;aspect=fixed;" parent="1" vertex="1">
          <mxGeometry x="510" y="310" width="30" height="30" as="geometry"/>
        </mxCell>
        <mxCell id="QFDXtt2NurlHFwD-7sQe-26" value="8" style="whiteSpace=wrap;html=1;aspect=fixed;" parent="1" vertex="1">
          <mxGeometry x="140" y="420" width="30" height="30" as="geometry"/>
        </mxCell>
        <mxCell id="QFDXtt2NurlHFwD-7sQe-27" value="3" style="whiteSpace=wrap;html=1;aspect=fixed;" parent="1" vertex="1">
          <mxGeometry x="170" y="420" width="30" height="30" as="geometry"/>
        </mxCell>
        <mxCell id="QFDXtt2NurlHFwD-7sQe-28" value="4" style="whiteSpace=wrap;html=1;aspect=fixed;" parent="1" vertex="1">
          <mxGeometry x="200" y="420" width="30" height="30" as="geometry"/>
        </mxCell>
        <mxCell id="QFDXtt2NurlHFwD-7sQe-29" value="9" style="whiteSpace=wrap;html=1;aspect=fixed;" parent="1" vertex="1">
          <mxGeometry x="230" y="420" width="30" height="30" as="geometry"/>
        </mxCell>
        <mxCell id="QFDXtt2NurlHFwD-7sQe-30" value="1" style="whiteSpace=wrap;html=1;aspect=fixed;" parent="1" vertex="1">
          <mxGeometry x="260" y="420" width="30" height="30" as="geometry"/>
        </mxCell>
        <mxCell id="QFDXtt2NurlHFwD-7sQe-31" value="With&amp;nbsp;0 rotation" style="text;html=1;strokeColor=none;fillColor=none;align=left;verticalAlign=middle;whiteSpace=wrap;rounded=0;" parent="1" vertex="1">
          <mxGeometry x="140" y="390" width="180" height="20" as="geometry"/>
        </mxCell>
        <mxCell id="QFDXtt2NurlHFwD-7sQe-32" value="" style="endArrow=classic;html=1;entryX=0;entryY=0.5;entryDx=0;entryDy=0;" parent="1" source="QFDXtt2NurlHFwD-7sQe-30" target="QFDXtt2NurlHFwD-7sQe-38" edge="1">
          <mxGeometry width="50" height="50" relative="1" as="geometry">
            <mxPoint x="300" y="435" as="sourcePoint"/>
            <mxPoint x="390" y="435" as="targetPoint"/>
          </mxGeometry>
        </mxCell>
        <mxCell id="QFDXtt2NurlHFwD-7sQe-38" value="8" style="whiteSpace=wrap;html=1;aspect=fixed;" parent="1" vertex="1">
          <mxGeometry x="390" y="420" width="30" height="30" as="geometry"/>
        </mxCell>
        <mxCell id="QFDXtt2NurlHFwD-7sQe-39" value="3" style="whiteSpace=wrap;html=1;aspect=fixed;" parent="1" vertex="1">
          <mxGeometry x="420" y="420" width="30" height="30" as="geometry"/>
        </mxCell>
        <mxCell id="QFDXtt2NurlHFwD-7sQe-40" value="4" style="whiteSpace=wrap;html=1;aspect=fixed;" parent="1" vertex="1">
          <mxGeometry x="450" y="420" width="30" height="30" as="geometry"/>
        </mxCell>
        <mxCell id="QFDXtt2NurlHFwD-7sQe-41" value="9" style="whiteSpace=wrap;html=1;aspect=fixed;" parent="1" vertex="1">
          <mxGeometry x="480" y="420" width="30" height="30" as="geometry"/>
        </mxCell>
        <mxCell id="QFDXtt2NurlHFwD-7sQe-42" value="1" style="whiteSpace=wrap;html=1;aspect=fixed;" parent="1" vertex="1">
          <mxGeometry x="510" y="420" width="30" height="30" as="geometry"/>
        </mxCell>
        <mxCell id="QFDXtt2NurlHFwD-7sQe-43" value="8" style="whiteSpace=wrap;html=1;aspect=fixed;" parent="1" vertex="1">
          <mxGeometry x="140" y="630" width="30" height="30" as="geometry"/>
        </mxCell>
        <mxCell id="QFDXtt2NurlHFwD-7sQe-44" value="3" style="whiteSpace=wrap;html=1;aspect=fixed;" parent="1" vertex="1">
          <mxGeometry x="170" y="630" width="30" height="30" as="geometry"/>
        </mxCell>
        <mxCell id="QFDXtt2NurlHFwD-7sQe-45" value="4" style="whiteSpace=wrap;html=1;aspect=fixed;" parent="1" vertex="1">
          <mxGeometry x="200" y="630" width="30" height="30" as="geometry"/>
        </mxCell>
        <mxCell id="QFDXtt2NurlHFwD-7sQe-46" value="9" style="whiteSpace=wrap;html=1;aspect=fixed;" parent="1" vertex="1">
          <mxGeometry x="230" y="630" width="30" height="30" as="geometry"/>
        </mxCell>
        <mxCell id="QFDXtt2NurlHFwD-7sQe-47" value="1" style="whiteSpace=wrap;html=1;aspect=fixed;" parent="1" vertex="1">
          <mxGeometry x="260" y="630" width="30" height="30" as="geometry"/>
        </mxCell>
        <mxCell id="QFDXtt2NurlHFwD-7sQe-48" value="&lt;b&gt;Negative rotation&lt;/b&gt;" style="text;html=1;strokeColor=none;fillColor=none;align=left;verticalAlign=middle;whiteSpace=wrap;rounded=0;" parent="1" vertex="1">
          <mxGeometry x="140" y="530" width="180" height="20" as="geometry"/>
        </mxCell>
        <mxCell id="QFDXtt2NurlHFwD-7sQe-49" value="" style="endArrow=classic;html=1;entryX=0;entryY=0.5;entryDx=0;entryDy=0;" parent="1" source="QFDXtt2NurlHFwD-7sQe-47" target="QFDXtt2NurlHFwD-7sQe-50" edge="1">
          <mxGeometry width="50" height="50" relative="1" as="geometry">
            <mxPoint x="300" y="645" as="sourcePoint"/>
            <mxPoint x="390" y="645" as="targetPoint"/>
          </mxGeometry>
        </mxCell>
        <mxCell id="QFDXtt2NurlHFwD-7sQe-50" value="9" style="whiteSpace=wrap;html=1;aspect=fixed;" parent="1" vertex="1">
          <mxGeometry x="390" y="630" width="30" height="30" as="geometry"/>
        </mxCell>
        <mxCell id="QFDXtt2NurlHFwD-7sQe-51" value="1" style="whiteSpace=wrap;html=1;aspect=fixed;" parent="1" vertex="1">
          <mxGeometry x="420" y="630" width="30" height="30" as="geometry"/>
        </mxCell>
        <mxCell id="QFDXtt2NurlHFwD-7sQe-52" value="8" style="whiteSpace=wrap;html=1;aspect=fixed;" parent="1" vertex="1">
          <mxGeometry x="450" y="630" width="30" height="30" as="geometry"/>
        </mxCell>
        <mxCell id="QFDXtt2NurlHFwD-7sQe-53" value="3" style="whiteSpace=wrap;html=1;aspect=fixed;" parent="1" vertex="1">
          <mxGeometry x="480" y="630" width="30" height="30" as="geometry"/>
        </mxCell>
        <mxCell id="QFDXtt2NurlHFwD-7sQe-54" value="4" style="whiteSpace=wrap;html=1;aspect=fixed;" parent="1" vertex="1">
          <mxGeometry x="510" y="630" width="30" height="30" as="geometry"/>
        </mxCell>
        <mxCell id="QFDXtt2NurlHFwD-7sQe-55" value="With -2 rotation" style="text;html=1;strokeColor=none;fillColor=none;align=left;verticalAlign=middle;whiteSpace=wrap;rounded=0;" parent="1" vertex="1">
          <mxGeometry x="140" y="600" width="130" height="20" as="geometry"/>
        </mxCell>
      </root>
    </mxGraphModel>
  </diagram>
</mxfile>
